#!OML:ASF E:\Steps\Project 1\Capture day 1\Session 2\Subject.ASF
:FULLY-SPECIFIED
:DEGREES
284
root 8.23155 13.5061 7.0216 24.2751 17.3393 -357.782
lowerback -8.55333 0.831087 -4.85246
upperback 0.499093 1.74362 -2.42102
thorax 5.26079 0.76405 0.426216
lowerneck 0.200791 0.158736 -4.36672
upperneck 9.21335 -0.158113 6.57937
head 2.96242 -0.00940037 2.94514
rclavicle 1.8487e-014 -2.82274e-014
rhumerus -18.1775 -5.64558 -82.3601
rradius 20.2156
rwrist 22.0482
rhand 6.54387 -57.1564
rfingers 7.12502
rthumb 31.8414 -84.394
lclavicle 1.8487e-014 -2.82274e-014
lhumerus -29.6201 -12.0249 77.102
lradius 27.5968
lwrist 2.36879
lhand -31.9902 -22.4164
lfingers 7.12502
lthumb -5.23923 7.49878
rfemur -63.3303 2.42404 25.1221
rtibia 76.8898
rfoot -37.5125 -21.638
rtoes -12.2124
lfemur -64.9456 -10.0553 -13.5903
ltibia 78.4341
lfoot -31.3856 -1.49051
ltoes -40.3995
285
root 8.20908 13.4081 7.00153 24.1878 17.9579 -357.613
lowerback -8.42529 0.595306 -5.02255
upperback 0.732142 1.45099 -2.44233
thorax 5.44273 0.608644 0.460627
lowerneck 0.262149 0.150614 -4.25981
upperneck 9.18122 -0.171072 6.56546
head 2.93966 -0.0137317 2.91861
rclavicle -4.37326e-014 -7.15625e-015
rhumerus -18.3666 -5.40954 -83.314
rradius 20.5026
rwrist 21.4894
rhand 6.08007 -56.75
rfingers 7.12502
rthumb 31.3996 -84.0745
lclavicle -4.37326e-014 -7.15625e-015
lhumerus -29.5179 -12.1838 77.8619
lradius 27.1174
lwrist 1.64803
lhand -31.6938 -22.176
lfingers 7.12502
lthumb -4.95304 7.74612
rfemur -63.4085 2.37629 25.0954
rtibia 77.4851
rfoot -39.7507 -21.656
rtoes -12.3972
lfemur -65.5034 -10.4989 -13.5435
ltibia 79.3002
lfoot -31.8023 -1.7414
ltoes -41.0485
286
root 8.19259 13.3182 7.00248 24.2855 18.6412 -357.623
lowerback -9.01473 0.321686 -5.08345
upperback 1.04525 1.14454 -2.32046
thorax 6.11816 0.43531 0.58843
lowerneck 0.1546 0.154796 -4.26672
upperneck 9.15375 -0.162134 6.571
head 2.94994 -0.00818552 2.92268
rclavicle 7.95139e-015 -6.08281e-014
rhumerus -18.4614 -4.37219 -84.2246
rradius 20.8841
rwrist 19.785
rhand 4.98762 -56.6126
rfingers 7.12502
rthumb 30.3582 -84.1344
lclavicle 7.95139e-015 -6.08281e-014
lhumerus -29.2847 -11.8791 78.5755
lradius 26.8038
lwrist 0.717937
lhand -31.2683 -21.6225
lfingers 7.12502
lthumb -4.54221 8.30878
rfemur -63.377 2.37504 25.2582
rtibia 77.6426
rfoot -41.0069 -22.1973
rtoes -12.1246
lfemur -66.1931 -10.8621 -13.2695
ltibia 80.0241
lfoot -32.2752 -1.84431
ltoes -41.6896
287
root 8.15567 13.2487 6.98343 24.1827 19.03 -357.547
lowerback -8.91699 0.165725 -5.52593
upperback 1.21695 0.981754 -2.22935
thorax 6.24519 0.33319 0.907375
lowerneck 0.0944331 0.157182 -4.23347
upperneck 9.12918 -0.156967 6.56612
head 2.95211 -0.00398845 2.91504
rclavicle 7.35503e-015 -2.06736e-014
rhumerus -18.7377 -3.9138 -85.0375
rradius 21.2475
rwrist 18.3566
rhand 3.52898 -56.4492
rfingers 7.12502
rthumb 28.9659 -84.2188
lclavicle 7.35503e-015 -2.06736e-014
lhumerus -29.124 -11.4255 79.2318
lradius 26.5997
lwrist -0.0864316
lhand -31.1688 -21.0272
lfingers 7.12502
lthumb -4.44611 8.90609
rfemur -63.3622 2.73344 25.2415
rtibia 78.1332
rfoot -42.0073 -22.8559
rtoes -11.86
lfemur -66.6684 -10.7964 -13.1499
ltibia 80.8011
lfoot -32.6032 -1.8985
ltoes -41.9565
288
root 8.12119 13.2023 6.9237 24.1729 19.1188 -357.246
lowerback -8.14499 0.138365 -5.99554
upperback 1.10596 0.934504 -2.34097
thorax 5.68754 0.311983 1.04078
lowerneck 0.111794 0.145573 -4.14558
upperneck 9.10381 -0.173465 6.55801
head 2.94035 -0.00975975 2.89467
rclavicle -5.9039e-014 1.15295e-014
rhumerus -19.1788 -4.75492 -85.6335
rradius 21.4607
rwrist 18.2333
rhand 3.10473 -56.5382
rfingers 7.12502
rthumb 28.5606 -84.3767
lclavicle -5.9039e-014 1.15295e-014
lhumerus -28.921 -11.0268 79.7813
lradius 26.1647
lwrist -0.485132
lhand -31.3416 -21.1136
lfingers 7.12502
lthumb -4.61295 8.81613
rfemur -63.8672 3.08801 24.8804
rtibia 79.1284
rfoot -43.0144 -23.2898
rtoes -12.9167
lfemur -67.2431 -10.5665 -13.4106
ltibia 81.63
lfoot -32.7405 -1.94437
ltoes -41.8839
289
root 8.12282 13.1352 6.93018 24.5482 19.7589 -357.381
lowerback -9.01842 -0.00559855 -5.68776
upperback 1.05139 0.776543 -2.30482
thorax 6.1386 0.233738 0.890995
lowerneck 0.111136 0.0979471 -4.11751
upperneck 9.10706 -0.239356 6.57813
head 2.94569 -0.0406479 2.895
rclavicle -5.04913e-014 7.35503e-014
rhumerus -19.6418 -5.16711 -86.0857
rradius 21.6222
rwrist 17.8821
rhand 3.20372 -56.8561
rfingers 7.12502
rthumb 28.6552 -84.6787
lclavicle -5.04913e-014 7.35503e-014
lhumerus -28.5338 -10.5413 80.2966
lradius 25.4649
lwrist -0.559009
lhand -31.5138 -21.7767
lfingers 7.12502
lthumb -4.77924 8.14943
rfemur -64.6288 3.00006 25.1275
rtibia 79.6389
rfoot -44.1846 -23.1423
rtoes -15.3749
lfemur -68.3076 -10.7924 -13.1009
ltibia 82.188
lfoot -32.4939 -1.96023
ltoes -41.7425
290
root 8.0936 13.1136 6.87671 24.4628 19.6502 -357.381
lowerback -8.24572 0.0716922 -5.87725
upperback 0.80714 0.825321 -2.32911
thorax 5.43672 0.272877 0.974722
lowerneck 0.124562 0.0619326 -4.14176
upperneck 9.1389 -0.289635 6.59515
head 2.95764 -0.0656924 2.90482
rclavicle 2.14687e-014 6.20208e-014
rhumerus -20.2414 -4.8348 -86.549
rradius 21.8053
rwrist 17.063
rhand 1.99605 -56.5274
rfingers 7.12502
rthumb 27.5008 -84.5391
lclavicle 2.14687e-014 6.20208e-014
lhumerus -28.2225 -9.78618 80.7287
lradius 24.9353
lwrist -0.405674
lhand -31.7941 -22.5196
lfingers 7.12502
lthumb -5.0499 7.40021
rfemur -65.2027 3.60285 24.9708
rtibia 80.2983
rfoot -45.1889 -22.7661
rtoes -18.5719
lfemur -68.8063 -10.2596 -13.1333
ltibia 82.7894
lfoot -32.2048 -1.91817
ltoes -41.5968
291
root 8.07184 13.101 6.83596 24.3799 19.512 -357.286
lowerback -7.72611 0.122932 -6.08991
upperback 0.660382 0.865737 -2.37972
thorax 4.98376 0.301436 1.0424
lowerneck 0.0898008 0.055537 -4.17611
upperneck 9.15234 -0.297654 6.60509
head 2.9697 -0.0698877 2.91517
rclavicle 4.87022e-014 7.95139e-016
rhumerus -20.7179 -5.05702 -86.9014
rradius 21.8524
rwrist 16.9215
rhand 0.936722 -55.8256
rfingers 7.12502
rthumb 26.4873 -83.9943
lclavicle 4.87022e-014 7.95139e-016
lhumerus -27.9324 -9.33879 81.1798
lradius 24.7372
lwrist 0.414937
lhand -32.0692 -23.0503
lfingers 7.12502
lthumb -5.31555 6.86299
rfemur -65.5067 4.03579 24.7317
rtibia 80.6056
rfoot -45.7681 -22.811
rtoes -22.539
lfemur -69.1084 -9.84346 -13.3069
ltibia 83.2856
lfoot -32.0753 -1.95593
ltoes -41.7804
292
root 8.05905 13.0936 6.80632 24.3596 19.4829 -357.384
lowerback -7.64903 0.163432 -5.97177
upperback 0.604963 0.900372 -2.40619
thorax 4.88149 0.325522 0.952514
lowerneck 0.0784105 0.0626867 -4.21571
upperneck 9.13828 -0.287971 6.62915
head 2.9671 -0.0656466 2.93103
rclavicle 3.97569e-016 3.33958e-014
rhumerus -20.9193 -6.00368 -87.1194
rradius 21.715
rwrist 17.3502
rhand 0.450315 -55.5015
rfingers 7.12502
rthumb 26.0216 -83.7395
lclavicle 3.97569e-016 3.33958e-014
lhumerus -27.5568 -9.11521 81.6075
lradius 24.5337
lwrist 1.22565
lhand -32.1962 -23.4306
lfingers 7.12502
lthumb -5.43815 6.4796
rfemur -65.6942 4.29585 24.7618
rtibia 80.644
rfoot -46.2613 -22.9221
rtoes -25.8081
lfemur -69.4394 -9.44801 -13.3528
ltibia 83.5163
lfoot -31.667 -1.9981
ltoes -41.5321
293
root 8.05216 13.0956 6.7829 24.2142 19.4282 -357.655
lowerback -7.6754 0.219534 -5.64011
upperback 0.581937 0.946152 -2.43054
thorax 4.87402 0.357546 0.747749
lowerneck 0.0805689 0.0679787 -4.25502
upperneck 9.127 -0.281306 6.65295
head 2.96309 -0.063118 2.94659
rclavicle -4.77083e-014 4.29375e-014
rhumerus -21.2006 -6.75857 -87.3877
rradius 21.6946
rwrist 17.6021
rhand -0.0168412 -55.3754
rfingers 7.12502
rthumb 25.5742 -83.6784
lclavicle -4.77083e-014 4.29375e-014
lhumerus -27.2215 -8.46702 81.8081
lradius 24.2618
lwrist 1.2978
lhand -32.0943 -23.8086
lfingers 7.12502
lthumb -5.33974 6.10411
rfemur -65.6371 4.51171 25.006
rtibia 80.5138
rfoot -47.0202 -22.8019
rtoes -28.6152
lfemur -69.5692 -8.99341 -13.2996
ltibia 83.5758
lfoot -31.2969 -1.93787
ltoes -41.0966
294
root 8.05084 13.1078 6.7566 24.0052 19.2378 -357.721
lowerback -7.59151 0.254173 -5.52369
upperback 0.603965 0.978987 -2.48979
thorax 4.85058 0.37783 0.624205
lowerneck -0.0168409 0.0520329 -4.20935
upperneck 9.1283 -0.301878 6.65397
head 2.98263 -0.0703831 2.93895
rclavicle -4.57205e-015 -2.3059e-014
rhumerus -21.4457 -7.16274 -87.6391
rradius 21.6366
rwrist 17.9321
rhand 0.01274 -55.3583
rfingers 7.12502
rthumb 25.6026 -83.6573
lclavicle -4.57205e-015 -2.3059e-014
lhumerus -26.9139 -7.73711 81.993
lradius 24.2103
lwrist 1.08757
lhand -31.9317 -23.1167
lfingers 7.12502
lthumb -5.18278 6.79997
rfemur -65.3979 4.60922 25.0148
rtibia 80.28
rfoot -47.0581 -22.6838
rtoes -28.0948
lfemur -69.4525 -8.64592 -13.4702
ltibia 83.5126
lfoot -31.2864 -1.8778
ltoes -41.5012
295
root 8.05455 13.1257 6.72202 23.9002 19.0074 -357.552
lowerback -7.48715 0.220046 -5.59063
upperback 0.603434 0.935263 -2.56334
thorax 4.79375 0.356936 0.579143
lowerneck -0.0535916 0.0398436 -4.14793
upperneck 9.11613 -0.318516 6.64696
head 2.9857 -0.076482 2.92472
rclavicle -3.18055e-015 -8.74653e-015
rhumerus -21.6026 -7.50082 -87.7979
rradius 21.4032
rwrist 18.2859
rhand -0.418875 -55.2889
rfingers 7.12502
rthumb 25.1891 -83.6467
lclavicle -3.18055e-015 -8.74653e-015
lhumerus -26.5807 -7.10006 82.2752
lradius 24.1586
lwrist 0.767034
lhand -32.1131 -21.7236
lfingers 7.12502
lthumb -5.35795 8.18866
rfemur -65.2733 4.50842 24.7702
rtibia 80.107
rfoot -46.9741 -22.7434
rtoes -28.2472
lfemur -69.3843 -8.48903 -13.8445
ltibia 83.3696
lfoot -31.1142 -1.88188
ltoes -41.9098
296
root 8.05988 13.1476 6.68819 23.8947 18.8548 -357.411
lowerback -7.51864 0.120621 -5.56817
upperback 0.531236 0.803006 -2.62999
thorax 4.74384 0.295371 0.482541
lowerneck -0.00437464 0.0462374 -4.08215
upperneck 9.10488 -0.312065 6.63279
head 2.97139 -0.0725345 2.90683
rclavicle 1.45113e-014 5.40694e-014
rhumerus -21.8452 -7.57556 -88.0045
rradius 21.1915
rwrist 18.1872
rhand -1.25142 -54.8775
rfingers 7.12502
rthumb 24.3912 -83.3451
lclavicle 1.45113e-014 5.40694e-014
lhumerus -26.2913 -6.73279 82.552
lradius 23.9645
lwrist 0.606485
lhand -32.3836 -21.0582
lfingers 7.12502
lthumb -5.61906 8.84726
rfemur -65.2603 4.29153 24.5766
rtibia 79.9348
rfoot -46.6672 -23.0189
rtoes -29.1328
lfemur -69.404 -8.38714 -14.1838
ltibia 83.0859
lfoot -30.4611 -1.96109
ltoes -41.4064
297
root 8.0664 13.1726 6.65978 24.0053 18.6432 -357.243
lowerback -7.74017 0.00774436 -5.63
upperback 0.417605 0.674174 -2.70419
thorax 4.75671 0.232747 0.426201
lowerneck 0.0203001 0.0764392 -4.01222
upperneck 9.10065 -0.271466 6.59183
head 2.96161 -0.0519615 2.88006
rclavicle 3.3197e-014 3.26007e-014
rhumerus -22.0759 -7.81097 -88.1564
rradius 20.9449
rwrist 18.2641
rhand -1.4866 -54.8467
rfingers 7.12502
rthumb 24.1657 -83.3444
lclavicle 3.3197e-014 3.26007e-014
lhumerus -26.0728 -6.64551 82.8235
lradius 23.7506
lwrist 0.412519
lhand -32.46 -20.8037
lfingers 7.12502
lthumb -5.69291 9.09984
rfemur -65.3349 4.14134 24.2987
rtibia 79.6663
rfoot -46.3094 -23.1025
rtoes -30.2325
lfemur -69.4085 -8.28385 -14.5212
ltibia 82.6646
lfoot -29.8787 -2.05089
ltoes -41.0842
